<svg width="18" height="14" viewBox="0 0 18 14" fill="none" xmlns="http://www.w3.org/2000/svg">
<path d="M17.659 4.37961C17.7961 4.27253 18 4.3727 18 4.54194V11.6053C18 12.5206 17.2441 13.2632 16.3125 13.2632H1.6875C0.755859 13.2632 0 12.5206 0 11.6053V4.54539C0 4.3727 0.200391 4.27599 0.341016 4.38306C1.12852 4.98405 2.17266 5.74737 5.75859 8.30674C6.50039 8.83865 7.75195 9.95773 9 9.95082C10.2551 9.96118 11.5312 8.81793 12.2449 8.30674C15.8309 5.74737 16.8715 4.98059 17.659 4.37961ZM9 8.8421C9.81563 8.85592 10.9898 7.83355 11.5805 7.41217C16.2457 4.08602 16.6008 3.79589 17.6766 2.96694C17.8805 2.81151 18 2.56974 18 2.31414V1.65789C18 0.742599 17.2441 0 16.3125 0H1.6875C0.755859 0 0 0.742599 0 1.65789V2.31414C0 2.56974 0.119531 2.80806 0.323437 2.96694C1.39922 3.79243 1.7543 4.08602 6.41953 7.41217C7.01016 7.83355 8.18437 8.85592 9 8.8421Z" fill="#0D2B4D"/>
</svg>
